<svg xmlns="http://www.w3.org/2000/svg" width="1916.849" height="193.2" viewBox="0 0 1916.849 193.2">
  <metadata><?xpacket begin="﻿" id="W5M0MpCehiHzreSzNTczkc9d"?>
<x:xmpmeta xmlns:x="adobe:ns:meta/" x:xmptk="Adobe XMP Core 5.6-c138 79.159824, 2016/09/14-01:09:01        ">
   <rdf:RDF xmlns:rdf="http://www.w3.org/1999/02/22-rdf-syntax-ns#">
      <rdf:Description rdf:about=""/>
   </rdf:RDF>
</x:xmpmeta>
                                                                                                    
                                                                                                    
                                                                                                    
                                                                                                    
                                                                                                    
                                                                                                    
                                                                                                    
                                                                                                    
                                                                                                    
                                                                                                    
                                                                                                    
                                                                                                    
                                                                                                    
                                                                                                    
                                                                                                    
                                                                                                    
                                                                                                    
                                                                                                    
                                                                                                    
                                                                                                    
                           
<?xpacket end="w"?></metadata>
<defs>
    <style>
      .cls-1 {
        fill: #fff;
        fill-rule: evenodd;
        opacity: 0.08;
      }
    </style>
  </defs>
  <path id="АТМОСФЕРА" class="cls-1" d="M209.9,10459.1l-68.88-186.8H69.9l-68.88,186.8h64.12l6.72-21.9h67.2l6.72,21.9H209.9Zm-85.96-71.2H86.983l18.48-60.2Zm189.838,71.2v-137.5h49.84v-49.3H207.1v49.3h50.12v137.5h56.559Zm305.756,0v-186.8h-78.12l-32.76,89.6-32.76-89.6H397.778v186.8h56.56v-112.3l41.719,112.3h25.2l41.72-112.3v112.3h56.56Zm136.359,3.3c57.679,0,102.2-39.2,102.2-96.6s-44.52-96.6-102.2-96.6-102.2,39.2-102.2,96.6S698.216,10462.4,755.9,10462.4Zm0-49.8c-27.16,0-44.8-20.7-44.8-46.8,0-26,17.64-46.7,44.8-46.7s44.8,20.7,44.8,46.7C800.7,10391.9,783.056,10412.6,755.9,10412.6Zm229.037,49.8c49,0,73.917-29.7,84.837-54.6l-48.72-22.4c-4.76,14.6-19.32,27.2-36.117,27.2-27.16,0-45.36-20.7-45.36-46.8,0-26,18.2-46.7,45.36-46.7,16.8,0,31.357,12.6,36.117,27.1l48.72-22.7c-11.2-25.7-35.84-54.3-84.837-54.3-58.52,0-102.759,38.9-102.759,96.6C882.174,10423.2,926.413,10462.4,984.933,10462.4Zm256.2-3.3V10440c58.8-5.6,93.24-29.9,93.24-74.2,0-44.2-34.44-68.3-93.24-73.9v-19.6h-56.56v19.6c-59.08,5.6-93.24,29.7-93.24,73.9,0,44.3,34.16,68.6,93.24,74.2v19.1h56.56Zm-92.4-93.3c0-13.4,11.76-21,35.84-24.1v48.2C1160.49,10387.1,1148.73,10379.3,1148.73,10365.8Zm128.24,0c0,13.5-11.76,21.3-35.84,24.1v-48.2C1265.21,10344.8,1276.97,10352.4,1276.97,10365.8Zm233.24,93.3v-49.3h-85.12v-20.5h83.16v-49.2h-83.16v-18.5h85.12v-49.3H1368.53v186.8h141.68Zm95.76,0v-58.8h43.12c43.68,0,67.2-29.2,67.2-63.9,0-35-23.52-64.1-67.2-64.1h-99.68v186.8h56.56Zm35.84-108.1h-35.84v-29.4h35.84c9.52,0,17.08,4.7,17.08,14.8C1658.89,10346.2,1651.33,10351,1641.81,10351Zm276.07,108.1L1849,10272.3h-71.11l-68.88,186.8h64.12l6.72-21.9h67.19l6.72,21.9h64.12Zm-85.95-71.2h-36.96l18.48-60.2Z" transform="translate(-1.031 -10269.2)"/>
</svg>
