<svg xmlns="http://www.w3.org/2000/svg" width="1918.91" height="445" viewBox="0 0 1918.91 445">
  <metadata><?xpacket begin="﻿" id="W5M0MpCehiHzreSzNTczkc9d"?>
<x:xmpmeta xmlns:x="adobe:ns:meta/" x:xmptk="Adobe XMP Core 5.6-c138 79.159824, 2016/09/14-01:09:01        ">
   <rdf:RDF xmlns:rdf="http://www.w3.org/1999/02/22-rdf-syntax-ns#">
      <rdf:Description rdf:about=""/>
   </rdf:RDF>
</x:xmpmeta>
                                                                                                    
                                                                                                    
                                                                                                    
                                                                                                    
                                                                                                    
                                                                                                    
                                                                                                    
                                                                                                    
                                                                                                    
                                                                                                    
                                                                                                    
                                                                                                    
                                                                                                    
                                                                                                    
                                                                                                    
                                                                                                    
                                                                                                    
                                                                                                    
                                                                                                    
                                                                                                    
                           
<?xpacket end="w"?></metadata>
<defs>
    <style>
      .cls-1 {
        fill: #fff;
        fill-rule: evenodd;
        opacity: 0.13;
      }
    </style>
  </defs>
  <path id="ENERGY_FORUM" data-name="ENERGY FORUM" class="cls-1" d="M156.5,4578.27v-54.33H62.772v-22.53h91.573v-54.33H62.772v-20.37H156.5v-54.33H0.49v205.89H156.5Zm225.689,0V4372.38H319.91v97.55l-71.531-97.55H184.247v205.89h62.282V4473.94l75.848,104.33h59.815Zm189.308,0v-54.33H477.769v-22.53h91.572v-54.33H477.769v-20.37H571.5v-54.33H415.487v205.89H571.5Zm211.814,0-37.308-72.85c16.342-8.02,37-26.85,37-62.35,0-38.59-25.9-70.69-74-70.69H599.243v205.89h62.282v-64.82h22.508l28.366,64.82h70.915Zm-83.865-119.15H661.525v-32.41h37.924c10.483,0,20.349,4.94,20.349,16.05C719.8,4454.18,709.932,4459.12,699.449,4459.12Zm210.889,122.86c40.391,0,71.223-16.36,94.042-41.67v-84.28H904.171v54.33H942.4v7.41c-6.475,4.94-20.35,9.26-32.066,9.26-29.908,0-49.949-22.84-49.949-51.55s20.041-51.55,49.949-51.55c18.5,0,32.066,12.97,37.924,25.62l52.418-26.85c-12.952-26.55-41.318-53.71-90.342-53.71-62.282,0-113.155,40.43-113.155,106.49C797.183,4541.23,848.056,4581.98,910.338,4581.98Zm229.7-3.71v-81.8l76.46-124.09h-69.99l-37.61,69.46-38.24-69.46h-69.99l77.08,124.09v81.8h62.29ZM873.293,4810.29v-76.86h91.572V4679.1H873.293v-20.37h93.731V4604.4H811.011v205.89h62.282ZM1094.97,4814c63.52,0,112.54-43.22,112.54-106.5S1158.49,4601,1094.97,4601s-112.535,43.22-112.535,106.5S1031.46,4814,1094.97,4814Zm0-54.95c-29.9,0-49.33-22.84-49.33-51.55s19.43-51.55,49.33-51.55,49.34,22.84,49.34,51.55S1124.88,4759.05,1094.97,4759.05Zm318.81,51.24-37.31-72.85c16.34-8.02,37-26.85,37-62.35,0-38.59-25.9-70.69-74-70.69H1229.71v205.89h62.28v-64.82h22.5l28.37,64.82h70.92Zm-83.87-119.15h-37.92v-32.41h37.92c10.48,0,20.35,4.94,20.35,16.05C1350.26,4686.2,1340.39,4691.14,1329.91,4691.14ZM1540.49,4814c69.37,0,101.44-37.35,101.44-88.6v-121h-63.21v119.15c0,19.76-12.95,35.5-38.23,35.5-25.59,0-38.54-15.74-38.54-35.5V4604.4h-63.21v121.31C1438.74,4776.65,1471.12,4814,1540.49,4814Zm378.93-3.71V4604.4H1833.4l-36.08,98.78-36.07-98.78h-86.03v205.89h62.29V4686.51l45.94,123.78h27.75l45.94-123.78v123.78h62.28Z" transform="translate(-0.5 -4369)"/>
</svg>
