<svg xmlns="http://www.w3.org/2000/svg" width="1453.91" height="445" viewBox="0 0 1453.91 445">
  <metadata><?xpacket begin="﻿" id="W5M0MpCehiHzreSzNTczkc9d"?>
<x:xmpmeta xmlns:x="adobe:ns:meta/" x:xmptk="Adobe XMP Core 5.6-c138 79.159824, 2016/09/14-01:09:01        ">
   <rdf:RDF xmlns:rdf="http://www.w3.org/1999/02/22-rdf-syntax-ns#">
      <rdf:Description rdf:about=""/>
   </rdf:RDF>
</x:xmpmeta>
                                                                                                    
                                                                                                    
                                                                                                    
                                                                                                    
                                                                                                    
                                                                                                    
                                                                                                    
                                                                                                    
                                                                                                    
                                                                                                    
                                                                                                    
                                                                                                    
                                                                                                    
                                                                                                    
                                                                                                    
                                                                                                    
                                                                                                    
                                                                                                    
                                                                                                    
                                                                                                    
                           
<?xpacket end="w"?></metadata>
<defs>
    <style>
      .cls-1 {
        fill: #fff;
        fill-rule: evenodd;
        opacity: 0.13;
      }
    </style>
  </defs>
  <path id="ENERGY_FORUM" data-name="ENERGY FORUM" class="cls-1" d="M156.5,4578.27v-54.33H62.772v-22.53h91.573v-54.33H62.772v-20.37H156.5v-54.33H0.49v205.89H156.5Zm225.689,0V4372.38H319.91v97.54l-71.531-97.54H184.247v205.89h62.282V4473.94l75.848,104.33h59.815Zm189.308,0v-54.33H477.769v-22.53h91.572v-54.33H477.769v-20.37H571.5v-54.33H415.487v205.89H571.5Zm211.814,0-37.308-72.85c16.342-8.02,37-26.85,37-62.35,0-38.59-25.9-70.69-74-70.69H599.243v205.89h62.282v-64.82h22.508l28.366,64.82h70.915Zm-83.865-119.15H661.525v-32.41h37.924c10.483,0,20.349,4.94,20.349,16.05C719.8,4454.18,709.932,4459.12,699.449,4459.12Zm210.889,122.86c40.391,0,71.223-16.36,94.042-41.68v-84.27H904.171v54.33H942.4v7.41c-6.475,4.94-20.35,9.26-32.066,9.26-29.908,0-49.949-22.84-49.949-51.55s20.041-51.55,49.949-51.55c18.5,0,32.066,12.97,37.924,25.62l52.418-26.85c-12.952-26.55-41.318-53.72-90.342-53.72-62.282,0-113.155,40.44-113.155,106.5C797.183,4541.23,848.056,4581.98,910.338,4581.98Zm229.7-3.71v-81.8l76.46-124.09h-69.99l-37.61,69.45-38.24-69.45h-69.99l77.08,124.09v81.8h62.29ZM408.293,4810.29v-76.86h91.572V4679.1H408.293v-20.37h93.731V4604.4H346.011v205.89h62.282ZM629.974,4814c63.515,0,112.539-43.22,112.539-106.5S693.489,4601,629.974,4601s-112.539,43.22-112.539,106.5S566.459,4814,629.974,4814Zm0-54.95c-29.908,0-49.332-22.84-49.332-51.55s19.424-51.55,49.332-51.55,49.332,22.84,49.332,51.55S659.881,4759.05,629.974,4759.05Zm318.8,51.24-37.307-72.85c16.341-8.02,37-26.85,37-62.35,0-38.59-25.9-70.69-74-70.69H764.705v205.89h62.282v-64.82H849.5l28.365,64.82h70.915Zm-83.864-119.15H826.987v-32.41h37.924c10.483,0,20.349,4.94,20.349,16.05C885.26,4686.2,875.394,4691.14,864.911,4691.14ZM1075.49,4814c69.37,0,101.44-37.35,101.44-88.6v-121h-63.21v119.15c0,19.76-12.95,35.5-38.23,35.5-25.59,0-38.54-15.74-38.54-35.5V4604.4H973.744v121.31C973.744,4776.65,1006.12,4814,1075.49,4814Zm378.93-3.71V4604.4H1368.4l-36.08,98.78-36.07-98.78h-86.03v205.89h62.29V4686.51l45.94,123.78h27.75l45.94-123.78v123.78h62.28Z" transform="translate(-0.5 -4369)"/>
</svg>
