<svg xmlns="http://www.w3.org/2000/svg" width="1307.377" height="120.16" viewBox="0 0 1307.377 120.16">
  <metadata><?xpacket begin="﻿" id="W5M0MpCehiHzreSzNTczkc9d"?>
<x:xmpmeta xmlns:x="adobe:ns:meta/" x:xmptk="Adobe XMP Core 5.6-c138 79.159824, 2016/09/14-01:09:01        ">
   <rdf:RDF xmlns:rdf="http://www.w3.org/1999/02/22-rdf-syntax-ns#">
      <rdf:Description rdf:about=""/>
   </rdf:RDF>
</x:xmpmeta>
                                                                                                    
                                                                                                    
                                                                                                    
                                                                                                    
                                                                                                    
                                                                                                    
                                                                                                    
                                                                                                    
                                                                                                    
                                                                                                    
                                                                                                    
                                                                                                    
                                                                                                    
                                                                                                    
                                                                                                    
                                                                                                    
                                                                                                    
                                                                                                    
                                                                                                    
                                                                                                    
                           
<?xpacket end="w"?></metadata>
<defs>
    <style>
      .cls-1 {
        fill: #dbd9e2;
        fill-rule: evenodd;
        opacity: 0.1;
      }
    </style>
  </defs>
  <path id="ИДЕЯ_И_МИССИЯ" data-name="ИДЕЯ И МИССИЯ" class="cls-1" d="M334.405,5008.8l36.9-56.7v56.7h30.3V4908.75H370.4l-34.8,53.4v-53.4h-30.3V5008.8h29.1Zm82.051,18.44h30.3V5008.8H496.4v18.44h30.3V4982.4H518v-73.65H439.855l-6.15,50.4c-2.4,19.05-8.249,23.1-17.249,24.75v43.34Zm47.4-65.84,3.3-26.25H487.7v47.25H454.1A35.323,35.323,0,0,0,463.854,4961.4ZM616.4,5008.8v-26.4H570.8v-10.95h44.548v-26.4H570.8v-9.9h45.6v-26.4H540.5V5008.8h75.9Zm47.7,0,13.8-31.5h10.95v31.5h30.3V4908.75h-53.4c-23.4,0-36,15.6-36,34.35,0,17.25,10.05,26.4,18,30.3l-18.15,35.4h34.5Zm6.3-57.9c-5.1,0-9.9-2.4-9.9-7.95,0-5.4,4.8-7.8,9.9-7.8h18.449v15.75H670.4Zm139.8,57.9,36.9-56.7v56.7h30.3V4908.75H846.2l-34.8,53.4v-53.4H781.1V5008.8h29.1Zm247.94,0V4908.75H1016.3l-17.553,48-17.549-48H939.349V5008.8h30.3v-60.15L992,5008.8h13.5l22.35-60.15v60.15h30.29Zm49.06,0,36.9-56.7v56.7h30.29V4908.75H1143.2l-34.8,53.4v-53.4h-30.3V5008.8h29.1Zm136.8,1.8c26.25,0,39.59-15.9,45.44-29.25l-26.09-12c-2.55,7.8-10.35,14.55-19.35,14.55-14.55,0-24.3-11.1-24.3-25.05s9.75-25.05,24.3-25.05c9,0,16.8,6.75,19.35,14.55l26.09-12.15c-6-13.8-19.19-29.1-45.44-29.1-31.35,0-55.05,20.85-55.05,51.75C1188.95,4989.6,1212.65,5010.6,1244,5010.6Zm108.29,0c26.25,0,39.6-15.9,45.45-29.25l-26.1-12c-2.55,7.8-10.35,14.55-19.35,14.55-14.54,0-24.29-11.1-24.29-25.05s9.75-25.05,24.29-25.05c9,0,16.8,6.75,19.35,14.55l26.1-12.15c-6-13.8-19.2-29.1-45.45-29.1-31.34,0-55.04,20.85-55.04,51.75C1297.25,4989.6,1320.95,5010.6,1352.29,5010.6Zm87.75-1.8,36.9-56.7v56.7h30.3V4908.75h-31.2l-34.8,53.4v-53.4h-30.29V5008.8h29.09Zm117.6,0,13.8-31.5h10.95v31.5h30.3V4908.75h-53.4c-23.39,0-35.99,15.6-35.99,34.35,0,17.25,10.05,26.4,18,30.3l-18.15,35.4h34.49Zm6.3-57.9c-5.1,0-9.9-2.4-9.9-7.95,0-5.4,4.8-7.8,9.9-7.8h18.45v15.75h-18.45Z" transform="translate(-305.313 -4907.09)"/>
</svg>
