<svg xmlns="http://www.w3.org/2000/svg" width="1912.035" height="180.75" viewBox="0 0 1912.035 180.75">
  <metadata><?xpacket begin="﻿" id="W5M0MpCehiHzreSzNTczkc9d"?>
<x:xmpmeta xmlns:x="adobe:ns:meta/" x:xmptk="Adobe XMP Core 5.6-c138 79.159824, 2016/09/14-01:09:01        ">
   <rdf:RDF xmlns:rdf="http://www.w3.org/1999/02/22-rdf-syntax-ns#">
      <rdf:Description rdf:about=""/>
   </rdf:RDF>
</x:xmpmeta>
                                                                                                    
                                                                                                    
                                                                                                    
                                                                                                    
                                                                                                    
                                                                                                    
                                                                                                    
                                                                                                    
                                                                                                    
                                                                                                    
                                                                                                    
                                                                                                    
                                                                                                    
                                                                                                    
                                                                                                    
                                                                                                    
                                                                                                    
                                                                                                    
                                                                                                    
                                                                                                    
                           
<?xpacket end="w"?></metadata>
<defs>
    <style>
      .cls-1 {
        fill: #03002d;
        fill-rule: evenodd;
        opacity: 0.08;
      }
    </style>
  </defs>
  <path id="ОРГАНИЗАТОР" class="cls-1" d="M98.389,8224.12c53.441,0,93.26-37.2,93.26-90.38s-39.819-90.38-93.26-90.38-93.522,37.2-93.522,90.38S44.948,8224.12,98.389,8224.12Zm0-39.82c-29.078,0-47.678-22.27-47.678-50.56,0-28.56,18.6-50.56,47.678-50.56,28.816,0,47.416,22,47.416,50.56C145.805,8162.03,127.205,8184.3,98.389,8184.3Zm161.1,36.67v-58.68h42.439c39.3,0,60.776-26.46,60.776-57.89,0-31.7-21.481-58.16-60.776-58.16h-87.5v174.73h45.058ZM295.9,8123H259.492v-37.46H295.9c12.051,0,20.958,6.81,20.958,18.86C316.863,8116.19,307.956,8123,295.9,8123Zm132.026,97.97V8085.54h83.043v-39.3h-128.1v174.73h45.058Zm260.913,0-66.015-174.73H566.244L500.49,8220.97h51.084l8.645-25.15h68.9l8.645,25.15h51.083ZM616.8,8156.53H572.269l22.267-65.75Zm247.553,64.44V8046.24H819.3v65.23H746.733v-65.23H701.675v174.73h45.058v-70.2H819.3v70.2h45.058Zm74.918,0,73.616-107.93v107.93h45.32V8046.24h-46.63l-70.734,102.95V8046.24H895.788v174.73h43.486Zm213.756,3.15c43.75,0,75.45-21.22,75.45-51.87,0-25.15-22.53-39.56-41.13-41.39,20.7-3.41,38.25-18.86,38.25-39.3,0-28.81-27.77-47.94-72.31-47.94-32.22,0-58.15,11.79-72.82,28.29l21.74,28.3c12.31-11.01,30.39-16.77,46.37-16.77,18.08,0,31.96,4.98,31.96,15.98,0,9.17-12.31,13.62-30.91,13.62H1114v39.56h35.63c25.15,0,33.79,4.72,33.79,14.67,0,9.69-11.26,17.03-31.96,17.03-15.19,0-37.98-6.03-50.56-18.34l-22.79,30.65C1091.73,8212.33,1119.76,8224.12,1153.03,8224.12Zm269.82-3.15-66.01-174.73h-56.59l-65.75,174.73h51.08l8.65-25.15h68.9l8.64,25.15h51.08Zm-72.04-64.44h-44.53l22.27-65.75Zm152.72,64.44V8085.54h48.73v-39.3H1409.49v39.3h48.99v135.43h45.05Zm149.06,3.15c53.44,0,93.26-37.2,93.26-90.38s-39.82-90.38-93.26-90.38-93.52,37.2-93.52,90.38S1599.15,8224.12,1652.59,8224.12Zm0-39.82c-29.08,0-47.68-22.27-47.68-50.56,0-28.56,18.6-50.56,47.68-50.56,28.82,0,47.42,22,47.42,50.56C1700.01,8162.03,1681.41,8184.3,1652.59,8184.3Zm161.11,36.67v-58.68h42.43c39.3,0,60.78-26.46,60.78-57.89,0-31.7-21.48-58.16-60.78-58.16h-87.49v174.73h45.06Zm36.41-97.97H1813.7v-37.46h36.41c12.05,0,20.96,6.81,20.96,18.86C1871.07,8116.19,1862.16,8123,1850.11,8123Z" transform="translate(-4.875 -8043.38)"/>
</svg>
