<svg xmlns="http://www.w3.org/2000/svg" width="754" height="53" viewBox="0 0 754 53">
  <metadata><?xpacket begin="﻿" id="W5M0MpCehiHzreSzNTczkc9d"?>
<x:xmpmeta xmlns:x="adobe:ns:meta/" x:xmptk="Adobe XMP Core 5.6-c138 79.159824, 2016/09/14-01:09:01        ">
   <rdf:RDF xmlns:rdf="http://www.w3.org/1999/02/22-rdf-syntax-ns#">
      <rdf:Description rdf:about=""/>
   </rdf:RDF>
</x:xmpmeta>
                                                                                                    
                                                                                                    
                                                                                                    
                                                                                                    
                                                                                                    
                                                                                                    
                                                                                                    
                                                                                                    
                                                                                                    
                                                                                                    
                                                                                                    
                                                                                                    
                                                                                                    
                                                                                                    
                                                                                                    
                                                                                                    
                                                                                                    
                                                                                                    
                                                                                                    
                                                                                                    
                           
<?xpacket end="w"?></metadata>
<defs>
    <style>
      .cls-1 {
        fill: #0e003e;
        fill-rule: evenodd;
      }
    </style>
  </defs>
  <path id="_" data-name="" class="cls-1" d="M866,3306v-48H558a54.048,54.048,0,0,0-44,23.41c-11.755,17.04-24,16.38-24,16.38h-2s-13.245.66-25-16.38A54.048,54.048,0,0,0,419,3258H112v48H866Zm-373.719-28.84a1.5,1.5,0,0,1-.924.27H487.5a1.5,1.5,0,0,1-.924-0.27,0.914,0.914,0,0,1-.362-0.78V3262h6.429v14.38A0.914,0.914,0,0,1,492.281,3277.16Zm-10.165-18.29a1.93,1.93,0,0,1,1.366-3.3,1.731,1.731,0,0,1,1.386.62l2.532,3.24h-3.918A1.877,1.877,0,0,1,482.116,3258.87Zm13.259,0.56h-3.9l2.511-3.24a1.731,1.731,0,0,1,1.386-.62,1.93,1.93,0,1,1,0,3.86h0Zm9.3,2.75a0.625,0.625,0,0,0-.462-0.18h-8.839a4.5,4.5,0,1,0,0-9,4.075,4.075,0,0,0-3.375,1.55l-2.571,3.31-2.572-3.31a4.075,4.075,0,0,0-3.375-1.55,4.5,4.5,0,1,0,0,9h-8.839a0.618,0.618,0,0,0-.643.64v6.43a0.615,0.615,0,0,0,.181.46,0.625,0.625,0,0,0,.462.18h1.928v8.36A1.917,1.917,0,0,0,478.5,3280h21.857a1.917,1.917,0,0,0,1.929-1.93v-8.36h1.928a0.625,0.625,0,0,0,.462-0.18,0.615,0.615,0,0,0,.181-0.46v-6.43A0.63,0.63,0,0,0,504.676,3262.18Z" transform="translate(-112 -3253)"/>
</svg>
