<svg xmlns="http://www.w3.org/2000/svg" width="1917.16" height="301.57" viewBox="0 0 1917.16 301.57">
  <metadata><?xpacket begin="﻿" id="W5M0MpCehiHzreSzNTczkc9d"?>
<x:xmpmeta xmlns:x="adobe:ns:meta/" x:xmptk="Adobe XMP Core 5.6-c138 79.159824, 2016/09/14-01:09:01        ">
   <rdf:RDF xmlns:rdf="http://www.w3.org/1999/02/22-rdf-syntax-ns#">
      <rdf:Description rdf:about=""/>
   </rdf:RDF>
</x:xmpmeta>
                                                                                                    
                                                                                                    
                                                                                                    
                                                                                                    
                                                                                                    
                                                                                                    
                                                                                                    
                                                                                                    
                                                                                                    
                                                                                                    
                                                                                                    
                                                                                                    
                                                                                                    
                                                                                                    
                                                                                                    
                                                                                                    
                                                                                                    
                                                                                                    
                                                                                                    
                                                                                                    
                           
<?xpacket end="w"?></metadata>
<defs>
    <style>
      .cls-1 {
        fill: #0e003e;
        fill-rule: evenodd;
        opacity: 0.08;
      }
    </style>
  </defs>
  <path id="БИЛЕТЫ" class="cls-1" d="M-0.495,6377.85v296.22H162.05c66.616,0,102.145-44.41,102.145-97.7,0-52.85-35.529-96.82-102.145-96.82H89.216v-23.54H246.431v-78.16H-0.495Zm151.442,179.86c12.435,0,22.2,6.22,22.2,19.1s-9.77,19.1-22.2,19.1H89.216v-38.2h61.731Zm239.815,116.36L500.013,6506.2v167.87h89.711V6377.85H497.349l-103.034,158.1v-158.1h-89.71v296.22h86.157Zm242.93,5.33c68.837,0,126.127-28.87,140.339-145.67l9.77-77.72h60.843v218.06h89.711V6377.85H702.973l-18.209,149.22c-7.105,56.4-25.758,73.28-51.072,73.28v79.05Zm584.448-5.33v-78.16H1083.13v-32.42h131.9v-78.17h-131.9v-29.31h135.01v-78.16H993.419v296.22H1218.14Zm204.29,0V6456.01h79.05v-78.16H1253.22v78.16h79.5v218.06h89.71Zm122.12-296.22v296.22h158.11c69.28,0,106.58-46.19,106.58-101.7,0-55.07-37.3-101.26-106.58-101.26h-68.4v-93.26h-89.71Zm146.56,171.42c15.1,0,27.09,7.55,27.09,23.1,0,15.99-11.99,23.54-27.09,23.54h-56.85v-46.64h56.85Zm226.05,124.8V6377.85h-89.71v296.22h89.71Z" transform="translate(0 -6377.84)"/>
</svg>
