<svg xmlns="http://www.w3.org/2000/svg" width="1423" height="201" viewBox="0 0 1423 201">
  <metadata><?xpacket begin="﻿" id="W5M0MpCehiHzreSzNTczkc9d"?>
<x:xmpmeta xmlns:x="adobe:ns:meta/" x:xmptk="Adobe XMP Core 5.6-c138 79.159824, 2016/09/14-01:09:01        ">
   <rdf:RDF xmlns:rdf="http://www.w3.org/1999/02/22-rdf-syntax-ns#">
      <rdf:Description rdf:about=""/>
   </rdf:RDF>
</x:xmpmeta>
                                                                                                    
                                                                                                    
                                                                                                    
                                                                                                    
                                                                                                    
                                                                                                    
                                                                                                    
                                                                                                    
                                                                                                    
                                                                                                    
                                                                                                    
                                                                                                    
                                                                                                    
                                                                                                    
                                                                                                    
                                                                                                    
                                                                                                    
                                                                                                    
                                                                                                    
                                                                                                    
                           
<?xpacket end="w"?></metadata>
<defs>
    <style>
      .cls-1 {
        fill: #03002d;
        fill-rule: evenodd;
        opacity: 0.08;
      }
    </style>
  </defs>
  <path id="СПИКЕРЫ" class="cls-1" d="M361.269,3116c46.947,0,72.316-27.09,84.855-52.14l-43.156-20.39c-6.416,15.44-23.037,28.26-41.7,28.26-31.784,0-54.237-24.47-54.237-56.22s22.453-56.22,54.237-56.22c18.662,0,35.283,12.81,41.7,28.25l43.156-20.39c-12.83-25.63-37.908-52.14-84.855-52.14-59.777,0-105.266,40.49-105.266,100.5C256,3075.22,301.492,3116,361.269,3116Zm287.514-3.49v-194.3H467.7v194.3h50.155v-150.6h80.772v150.6h50.155Zm83.4,0,81.939-120.02v120.02h50.446v-194.3h-51.9l-78.732,114.48V2918.21H683.777v194.3h48.4Zm343.208,0-79.6-103.41,75.524-90.89h-61.82l-59.777,79.82v-79.82H899.559v194.3h50.154V3055.7l13.122-16.31,51.025,73.12h61.53Zm157.46,0v-43.7h-92.43V3035.9h90.39v-43.7h-90.39v-30.29h92.43v-43.7H1090.26v194.3h142.59Zm79.32,0v-65.25h47.24c43.74,0,67.65-29.42,67.65-64.38,0-35.25-23.91-64.67-67.65-64.67h-97.4v194.3h50.16Zm40.53-108.95h-40.53v-41.65h40.53c13.41,0,23.33,7.57,23.33,20.97C1376.03,2995.99,1366.11,3003.56,1352.7,3003.56Zm96.81-85.35v194.3h97.39c43.74,0,67.65-29.42,67.65-64.67,0-34.96-23.91-64.38-67.65-64.38h-47.24v-65.25h-50.15Zm90.69,108.95c13.41,0,23.32,7.57,23.32,20.68,0,13.4-9.91,20.97-23.32,20.97h-40.54v-41.65h40.54Zm138.8,85.35v-194.3h-50.16v194.3H1679Z" transform="translate(-256 -2915)"/>
</svg>
